<svg width="57" height="57" xmlns="http://www.w3.org/2000/svg" xmlns:xlink="http://www.w3.org/1999/xlink" xml:space="preserve" overflow="hidden"><defs><clipPath id="clip0"><rect x="1277" y="86" width="57" height="57"/></clipPath></defs><g clip-path="url(#clip0)" transform="translate(-1277 -86)"><path d="M1279.45 86.0109 1278.84 86.2081 1277.82 87.0299 1277.21 87.8408 1277 88.4544 1277 89.068 1277 139.724 1277 140.535 1277.21 140.951 1277.82 141.97 1278.84 142.781 1279.45 142.989 1307.24 142.989 1307.24 120.932 1299.88 120.932 1299.88 112.352 1307.24 112.352 1307.24 106.019 1307.45 103.367 1308.06 101.121 1309.08 99.072 1310.31 97.6476 1311.94 96.2231 1313.98 95.4013 1316.03 94.7877 1318.47 94.5795 1322.56 94.7877 1325.01 94.9959 1325.01 102.754 1319.29 102.754 1318.27 102.962 1317.66 103.367 1317.05 103.773 1316.64 104.386 1316.43 105.208 1316.22 106.841 1316.22 112.352 1324.81 112.352 1323.58 120.932 1316.22 120.932 1316.22 142.989 1331.35 142.989 1331.96 142.781 1332.98 141.97 1333.59 140.951 1333.79 140.535 1334 139.724 1334 89.068 1333.79 88.4544 1333.59 87.8408 1332.98 87.0299 1331.96 86.2081 1331.35 86.0109Z" fill="#EEEe" fill-rule="evenodd"/></g></svg>