<svg width="120" height="121" xmlns="http://www.w3.org/2000/svg" xmlns:xlink="http://www.w3.org/1999/xlink" xml:space="preserve" overflow="hidden"><defs><clipPath id="clip0"><rect x="1508" y="92" width="120" height="121"/></clipPath></defs><g clip-path="url(#clip0)" transform="translate(-1508 -92)"><path d="M1598.75 112.918 1597.46 113.338 1596.17 114.225 1595.31 115.089 1594.44 115.953 1593.58 117.26 1593.17 118.567 1593.17 120.318 1593.17 121.602 1593.58 122.91 1594.02 124.217 1595.31 125.104 1596.17 125.968 1597.46 126.832 1598.75 127.275 1601.75 127.275 1603.04 126.832 1604.33 125.968 1605.19 125.104 1606.06 124.217 1606.92 122.91 1607.35 121.602 1607.35 120.318 1607.35 118.567 1606.92 117.26 1606.06 115.953 1605.19 115.089 1604.33 114.225 1603.04 113.338 1601.75 112.918ZM1568.21 132.061 1572.08 132.481 1575.96 133.789 1579.4 135.54 1582.42 138.154 1584.56 141.189 1586.71 144.668 1587.56 148.59 1588 152.512 1587.56 156.434 1586.71 160.333 1584.56 163.834 1582.42 166.869 1579.4 169.484 1575.96 171.212 1572.08 172.519 1564.36 172.519 1560.48 171.212 1557.04 169.484 1554.02 166.869 1551.44 163.834 1549.73 160.333 1548.44 156.434 1548 152.512 1548.44 148.59 1549.73 144.668 1551.44 141.189 1554.02 138.154 1557.04 135.54 1560.48 133.789 1564.36 132.481 1568.21 132.061ZM1568.21 121.182 1565.21 121.602 1561.77 122.046 1559.19 122.91 1556.17 123.797 1553.61 125.104 1551.02 126.832 1548.44 128.583 1546.29 130.31 1544.56 132.481 1542.86 135.096 1541.13 137.711 1539.83 140.325 1538.98 143.36 1538.13 146.419 1537.69 149.454 1537.25 152.512 1537.69 155.547 1538.13 158.605 1538.98 161.64 1539.83 164.698 1541.13 167.313 1542.86 169.928 1544.56 172.099 1546.29 174.713 1548.44 176.441 1551.02 178.192 1553.61 179.919 1556.17 181.227 1559.19 182.091 1561.77 182.978 1565.21 183.398 1571.23 183.398 1574.23 182.978 1577.25 182.091 1580.25 181.227 1582.83 179.919 1585.42 178.192 1587.56 176.441 1590.15 174.713 1591.88 172.099 1593.58 169.928 1595.31 167.313 1596.6 164.698 1597.46 161.64 1598.31 158.605 1598.75 155.547 1598.75 152.512 1598.75 149.454 1598.31 146.419 1597.46 143.36 1596.6 140.325 1595.31 137.711 1593.58 135.096 1591.88 132.481 1590.15 130.31 1587.56 128.583 1585.42 126.832 1582.83 125.104 1580.25 123.797 1577.25 122.91 1574.23 122.046 1571.23 121.602 1568.21 121.182ZM1576.4 102.459 1586.27 102.903 1595.73 103.346 1600.04 104.21 1603.48 105.074 1607.35 107.245 1610.35 109.859 1612.94 112.918 1615.08 116.816 1615.94 120.318 1616.81 124.217 1617.23 134.232 1617.23 144.247 1617.23 152.512 1617.23 160.776 1617.23 170.791 1616.81 180.363 1615.94 184.705 1615.08 188.184 1612.94 192.106 1610.35 195.164 1607.35 197.755 1603.48 199.95 1600.04 200.814 1595.73 201.678 1586.27 202.121 1550.17 202.121 1540.27 201.678 1536.4 200.814 1532.96 199.95 1529.08 197.755 1526.09 195.164 1523.5 192.106 1521.36 188.184 1520.48 184.705 1519.63 180.363 1519.19 170.791 1518.77 160.776 1519.19 152.512 1518.77 144.247 1519.19 134.232 1519.63 124.217 1520.48 120.318 1521.36 116.816 1523.5 112.918 1526.09 109.859 1529.08 107.245 1532.96 105.074 1536.4 104.21 1540.27 103.346 1550.17 102.903 1560.04 102.459 1568.21 102.903 1576.4 102.459ZM1543.27 92.0235 1536.4 92.8873 1532.96 93.7744 1529.94 94.6382 1526.94 95.9455 1523.92 97.6731 1520.92 99.424 1518.33 102.039 1515.75 104.653 1514.04 107.688 1512.31 110.723 1511.02 113.782 1510.17 116.816 1509.31 120.318 1508.44 127.275 1508.44 138.154 1508.02 152.512 1508.44 166.869 1508.44 177.305 1509.31 184.705 1510.17 187.764 1511.02 191.242 1512.31 194.277 1514.04 197.335 1515.75 200.37 1518.33 202.985 1520.92 205.6 1523.92 207.35 1526.94 209.078 1529.94 210.385 1532.96 211.249 1536.4 212.136 1543.27 212.557 1554.02 213 1582.42 213 1592.73 212.557 1600.04 212.136 1603.04 211.249 1606.48 210.385 1609.5 209.078 1612.5 207.35 1615.52 205.6 1618.1 202.985 1620.25 200.37 1622.39 197.335 1624.12 194.277 1625.39 191.242 1626.27 187.764 1627.12 184.705 1627.56 177.305 1627.98 166.869 1627.98 152.512 1627.98 138.154 1627.56 127.275 1627.12 120.318 1626.27 116.816 1625.39 113.782 1624.12 110.723 1622.39 107.688 1620.25 104.653 1618.1 102.039 1615.52 99.424 1612.5 97.6731 1609.5 95.9455 1606.48 94.6382 1603.04 93.7744 1600.04 92.8873 1592.73 92.0235Z" fill="#EEEe" fill-rule="evenodd"/></g></svg>