<svg width="57" height="57" xmlns="http://www.w3.org/2000/svg" xmlns:xlink="http://www.w3.org/1999/xlink" xml:space="preserve" overflow="hidden"><defs><clipPath id="clip0"><rect x="1401" y="87" width="57" height="57"/></clipPath></defs><g clip-path="url(#clip0)" transform="translate(-1401 -87)"><path d="M1419.6 102.113 1418.57 102.321 1418.16 102.727 1417.55 103.143 1416.94 103.746 1416.12 104.973 1415.71 105.795 1415.51 106.606 1415.3 107.834 1415.1 109.061 1415.3 110.289 1415.51 111.516 1416.53 113.763 1417.35 115.396 1417.95 116.218 1418.98 117.643 1421.43 120.711 1423.27 122.344 1425.32 123.977 1427.57 125.61 1430.01 126.838 1432.87 128.065 1435.12 128.679 1436.96 128.876 1438.59 128.679 1439.82 128.262 1441.24 127.451 1442.47 126.432 1442.89 126.016 1443.29 125.402 1443.7 124.174 1443.7 123.155 1443.7 122.344 1443.7 121.928 1443.29 121.522 1442.27 121.117 1437.57 118.87 1437.17 118.662 1436.75 118.662 1436.34 118.87 1435.94 119.276 1433.69 121.928 1433.48 122.344 1432.67 122.344 1432.26 122.136 1429.4 120.711 1426.95 118.87 1425.72 117.851 1424.71 116.821 1423.68 115.396 1422.66 113.763 1422.46 113.357 1422.46 112.941 1422.86 112.327 1423.68 111.516 1424.71 109.883 1424.71 109.27 1424.71 108.656 1422.46 103.34 1422.04 102.727 1421.64 102.321 1420.81 102.321 1419.6 102.113ZM1429.6 91.7016 1431.85 91.8988 1434.1 92.3153 1436.34 92.7208 1438.59 93.5318 1440.64 94.562 1442.47 95.7894 1444.31 97.0059 1446.15 98.6389 1447.58 100.283 1449.01 102.321 1450.24 104.162 1451.26 106.201 1452.07 108.448 1452.68 110.694 1453.1 112.941 1453.3 115.188 1453.1 117.643 1452.68 119.889 1452.07 122.136 1451.26 124.383 1450.24 126.432 1449.21 128.262 1447.79 130.103 1446.15 131.736 1444.52 133.369 1442.68 134.597 1440.64 135.824 1438.59 136.844 1436.55 137.665 1434.31 138.279 1431.85 138.476 1429.4 138.685 1426.34 138.476 1423.27 137.863 1420.41 136.844 1417.55 135.419 1416.74 135.002 1407.74 137.249 1410.2 128.679 1409.58 127.649 1408.16 124.788 1406.93 121.73 1406.32 118.465 1406.11 115.188 1406.11 112.744 1406.52 110.497 1407.14 108.25 1407.95 106.004 1408.97 103.954 1410 102.113 1411.42 100.283 1412.85 98.6389 1414.69 97.2142 1416.32 95.7894 1418.37 94.562 1420.41 93.5318 1422.46 92.7208 1424.71 92.3153 1427.15 91.8988 1429.6 91.7016ZM1429.4 87 1426.54 87.2082 1423.88 87.6137 1421.02 88.2274 1418.57 89.2467 1416.12 90.4741 1413.67 91.8988 1411.63 93.5318 1409.58 95.373 1407.74 97.4224 1406.11 99.4609 1404.68 101.916 1403.46 104.36 1402.63 106.815 1401.82 109.675 1401.42 112.327 1401.21 115.188 1401.61 119.067 1402.23 122.541 1403.46 126.016 1405.09 129.49 1401 144 1401 144 1415.92 140.109 1419.18 141.545 1422.46 142.564 1425.92 143.386 1429.4 143.584 1432.46 143.386 1435.12 142.97 1437.98 142.159 1440.43 141.337 1443.08 140.109 1445.33 138.685 1447.58 137.052 1449.63 135.211 1451.46 133.172 1453.1 131.123 1454.53 128.679 1455.75 126.224 1456.77 123.769 1457.39 120.908 1457.79 118.256 1458 115.188 1457.79 112.535 1457.39 109.675 1456.77 107.023 1455.75 104.568 1454.53 101.916 1453.1 99.6691 1451.26 97.4224 1449.42 95.373 1447.38 93.5318 1445.13 91.7016 1442.89 90.2659 1440.22 89.2467 1437.78 88.2274 1435.12 87.6137 1432.26 87.2082 1429.4 87Z" fill="#EEEe" fill-rule="evenodd"/></g></svg>